<svg xmlns="http://www.w3.org/2000/svg" width="16" height="16" viewBox="0 0 16 16">
    <path fill="#21556F" fill-rule="evenodd" d="M7.872 7.679a2.563 2.563 0 0 1 2.56 2.56c0 1.19-.817 2.194-1.92 2.478v.722h-1.28v-.722a2.563 2.563 0 0 1-1.92-2.478h1.28c0 .705.574 1.28 1.28 1.28.706 0 1.28-.575 1.28-1.28 0-.706-.575-1.28-1.28-1.28a2.563 2.563 0 0 1-2.56-2.56c0-1.19.817-2.195 1.92-2.48V3.2h1.28v.72a2.565 2.565 0 0 1 1.92 2.48h-1.28c0-.706-.575-1.28-1.28-1.28a1.281 1.281 0 0 0 0 2.56m0-7.04C3.637.64.192 4.085.192 8.32c0 4.235 3.445 7.68 7.68 7.68 4.235 0 7.68-3.446 7.68-7.68 0-4.235-3.446-7.68-7.68-7.68"/>
</svg>
