<svg xmlns="http://www.w3.org/2000/svg" width="17" height="16" viewBox="0 0 17 16">
    <defs>
        <linearGradient id="a" x1="22.858%" x2="77.142%" y1="212.636%" y2="-54.896%">
            <stop offset="0%" stop-color="#AA9ACA"/>
            <stop offset="100%" stop-color="#9484AF"/>
        </linearGradient>
        <linearGradient id="b" x1="25.688%" x2="74.325%" y1="60.567%" y2="25.909%">
            <stop offset="0%" stop-color="#9484AF"/>
            <stop offset="100%" stop-color="#5E5E89"/>
        </linearGradient>
        <linearGradient id="c" x1="21.133%" x2="78.866%" y1="60.566%" y2="10.566%">
            <stop offset="0%" stop-color="#BEA9D2"/>
            <stop offset="100%" stop-color="#AA9ACA"/>
        </linearGradient>
        <linearGradient id="d" x1="-5.335%" x2="105.346%" y1="96.203%" y2="17.332%">
            <stop offset="0%" stop-color="#AA9ACA"/>
            <stop offset="100%" stop-color="#9484AF"/>
        </linearGradient>
        <linearGradient id="e" x1="20.002%" x2="69.998%" y1="199.971%" y2="-50.009%">
            <stop offset="0%" stop-color="#BEA9D2"/>
            <stop offset="100%" stop-color="#AA9ACA"/>
        </linearGradient>
        <linearGradient id="f" x1="16.672%" x2="66.668%" y1="149.992%" y2=".004%">
            <stop offset="0%" stop-color="#BEA9D2"/>
            <stop offset="100%" stop-color="#AA9ACA"/>
        </linearGradient>
        <linearGradient id="g" x1="40.001%" x2="99.996%" y1="59.999%" y2=".004%">
            <stop offset="0%" stop-color="#E0CAFE"/>
            <stop offset="100%" stop-color="#BEA9D2"/>
        </linearGradient>
    </defs>
    <g fill="none" fill-rule="nonzero">
        <path fill="#1E0E39" d="M4.982 12.897l-3.223-5.57L4.982 1.76h6.45l3.223 5.569-3.223 5.569z"/>
        <path fill="url(#a)" d="M11.867 13.483H5.133l-1.03 1.758h8.794z"/>
        <path fill="url(#b)" d="M4.275 15.241l1-1.785L2.005 7.62H0z"/>
        <path fill="url(#c)" d="M12.701 0H4.103L5.11 1.717h6.584l3.291 5.61-3.29 5.611 1.006 1.717L17 7.328z"/>
        <path fill="url(#d)" d="M0 7.034h2.004l3.272-5.386L4.275 0z"/>
        <path fill="url(#e)" d="M5.154 2.732H.007v1.364h6.434L5.154 2.732z" transform="translate(5.276 7.034)"/>
        <path fill="url(#f)" d="M3.867 1.368L2.581.005H.007v1.363h3.86z" transform="translate(5.276 7.034)"/>
        <path fill="url(#g)" d="M5.276 4.69v1.29h2.58v1.289l1.289 1.29v-2.58h1.29v3.87l1.29 1.289V4.69h-6.45z"/>
    </g>
</svg>
