<svg xmlns="http://www.w3.org/2000/svg" width="16" height="16" viewBox="0 0 16 16">
    <path fill="#000" fill-rule="nonzero" d="M9.14 9.283c-.26 1.046-2.022.48-2.595.34l.463-1.857c.571.143 2.403.426 2.131 1.517m-1.5-4.048L7.22 6.92c.476.117 1.942.601 2.18-.35.248-.993-1.285-1.215-1.76-1.334m7.488 4.3A7.68 7.68 0 0 1 5.82 15.13a7.678 7.678 0 1 1 9.31-5.594m-5.754-4.89l.345-1.384-.842-.21-.336 1.347a34.99 34.99 0 0 0-.675-.158l.34-1.357-.844-.21-.345 1.382c-.18-.04-.359-.081-.538-.125v-.005l-1.16-.288-.225.9s.625.143.612.151c.342.086.403.311.393.49l-.394 1.577c.03.008.06.018.088.03l-.09-.022-.55 2.21c-.042.101-.147.257-.386.197.008.013-.612-.152-.612-.152l-.42.965 1.096.273c.204.051.403.105.6.155l-.348 1.4.841.21.346-1.386c.23.063.453.12.672.175L6.6 12.188l.842.21.35-1.397c1.436.272 2.517.162 2.971-1.137.367-1.046-.018-1.65-.774-2.044.55-.128.966-.49 1.076-1.237.154-1.022-.625-1.572-1.69-1.938"/>
</svg>
