<svg xmlns="http://www.w3.org/2000/svg" width="16" height="16" viewBox="0 0 16 16">
    <g fill="none" fill-rule="evenodd">
        <circle cx="8" cy="8" r="8" fill="#21556F"/>
        <path fill="#FFF" fill-rule="nonzero" d="M4.272 6.255c.213-1.085.632-1.899 1.26-2.441C6.158 3.27 6.96 3 7.938 3c.406 0 .742.025 1.01.076.267.051.535.119.802.202l-.277 1.113a4.475 4.475 0 0 0-1.535-.279c-.35 0-.657.051-.92.153a1.977 1.977 0 0 0-.678.432c-.19.185-.344.41-.464.674-.12.265-.212.56-.276.884h3.223l-.194 1H5.462c-.009.121-.014.242-.014.363a7784.433 7784.433 0 0 0 0 .723c0 .111.005.218.014.32h2.892L8.16 9.661H5.573c.157.825.44 1.4.85 1.725.411.324.925.487 1.543.487a3.964 3.964 0 0 0 1.757-.376L10 12.597c-.157.083-.429.171-.816.264A5.534 5.534 0 0 1 7.897 13c-1.079 0-1.913-.294-2.504-.883-.59-.59-.973-1.407-1.148-2.455H3V8.66h1.134a3.523 3.523 0 0 1-.013-.32 11425.142 11425.142 0 0 1 0-.722c0-.121.004-.242.013-.362H3V6.255h1.272z"/>
    </g>
</svg>
