<svg xmlns="http://www.w3.org/2000/svg" width="129" height="62" viewBox="0 0 129 62">
    <defs>
        <linearGradient id="a" x1="0%" x2="99.994%" y1="50%" y2="50%">
            <stop offset="0%" stop-color="#FFD25F"/>
            <stop offset="54%" stop-color="#E1D495"/>
            <stop offset="100%" stop-color="#9E751D"/>
        </linearGradient>
        <linearGradient id="b" x1="100%" x2="-.203%" y1="50%" y2="50%">
            <stop offset="0%" stop-color="#FFE49F"/>
            <stop offset="100%" stop-color="#BB9B3A"/>
        </linearGradient>
        <linearGradient id="c" x1="0%" y1="50%" y2="50%">
            <stop offset="0%" stop-color="#FFE49F"/>
            <stop offset="38%" stop-color="#BB9B3A"/>
            <stop offset="100%" stop-color="#90641A"/>
        </linearGradient>
        <linearGradient id="d" x1=".052%" x2="99.992%" y1="49.962%" y2="49.962%">
            <stop offset="0%" stop-color="#BB9B3A"/>
            <stop offset="100%" stop-color="#90641A"/>
        </linearGradient>
        <linearGradient id="e" x1=".052%" x2="99.994%" y1="49.962%" y2="49.962%">
            <stop offset="0%" stop-color="#FFFBDF"/>
            <stop offset="61%" stop-color="#C4A84C"/>
            <stop offset="100%" stop-color="#C4A84C"/>
        </linearGradient>
    </defs>
    <g fill="none" fill-rule="evenodd">
        <g fill="#FFF">
            <path d="M67.445 39.925v-15.7h4.93c.796 0 1.51.086 2.14.26.633.171 1.167.436 1.606.792.437.355.772.803 1.002 1.342.23.539.344 1.176.344 1.908 0 .36-.037.705-.115 1.035-.077.331-.197.64-.362.928a3.267 3.267 0 0 1-.624.781 3.136 3.136 0 0 1-.904.577c.41.116.756.29 1.04.523.286.233.516.506.691.814.175.31.303.646.384 1.008.08.363.12.735.12 1.116 0 1.524-.425 2.675-1.275 3.45-.85.778-2.083 1.165-3.696 1.165h-5.28v.001zm3.22-9.133h1.677c.642 0 1.119-.164 1.429-.49.31-.328.467-.808.467-1.44 0-.713-.147-1.223-.439-1.532-.292-.309-.766-.464-1.424-.464h-1.709v3.926zm0 2.307v4.194h2.06c.314 0 .582-.05.805-.15.223-.101.405-.243.548-.427a1.79 1.79 0 0 0 .312-.641c.066-.245.098-.514.098-.81 0-.668-.125-1.195-.377-1.584-.253-.388-.677-.582-1.276-.582h-2.17zM87.643 36.711h-4.391l-.855 3.213h-3.406l4.983-15.7h2.947l5.016 15.7h-3.44l-.854-3.213zm-3.691-2.641h2.979l-1.49-5.597-1.49 5.597zM104.576 39.925h-3.22l-4.71-10.297v10.297h-3.22v-15.7h3.22l4.721 10.31v-10.31h3.21zM115.398 33.131h-5.016v4.163h5.937v2.631h-9.158v-15.7h9.135v2.642h-5.914v3.71h5.017v2.554zM122.999 34.188h-1.6v5.737h-3.22v-15.7h5.138c.795 0 1.506.103 2.13.308a4.298 4.298 0 0 1 1.589.905c.434.398.766.893.996 1.483.23.59.345 1.273.345 2.049 0 .567-.053 1.08-.159 1.536-.105.456-.26.863-.46 1.218-.2.356-.444.667-.728.933a4.665 4.665 0 0 1-.964.69l2.792 6.426v.151h-3.46l-2.4-5.736zm-1.6-2.642h1.83c.641 0 1.125-.21 1.445-.631.32-.421.482-.983.482-1.688a4.24 4.24 0 0 0-.104-.976c-.07-.29-.179-.54-.329-.744a1.5 1.5 0 0 0-.575-.474 1.917 1.917 0 0 0-.832-.168h-1.917v4.68z"/>
        </g>
        <g fill-rule="nonzero">
            <ellipse cx="30.536" cy="30.536" fill="url(#a)" rx="30.536" ry="30.536"/>
            <ellipse cx="30.536" cy="30.536" fill="url(#b)" rx="27.192" ry="27.192"/>
            <ellipse cx="30.536" cy="30.536" fill="url(#c)" rx="25.854" ry="25.854"/>
            <path fill="url(#d)" d="M44.472 31.204c-.725-.874-1.704-1.526-2.597-2.311.195-.18.458-.412.713-.656a6.295 6.295 0 0 0-.434-9.673 8.426 8.426 0 0 0-5.235-1.73c-3.939-.046-7.874-.024-11.82-.027h-8.128v2.958l2.989.545h.042v19.953h-.023l-3.05.545v2.962h20.093a16.22 16.22 0 0 0 2.383-.164c2.753-.419 4.956-1.673 6.028-4.38 1.094-2.83 1.063-5.601-.961-8.022zm-17.42 9.028h-2.647V20.307h2.646v19.925zm4.884-19.594c1.849.1 3.671.058 5.44.332 1.613.252 2.528 1.69 2.421 3.26-.118 1.746-1.227 3.05-2.882 3.176-1.655.126-3.283.023-4.98.023V20.63v.007zm6.885 18.47a4.106 4.106 0 0 1-1.094.331c-.408.051-.82.07-1.231.057H31.92v-8.098c1.808 0 3.539-.069 5.262 0a3.786 3.786 0 0 1 3.618 3.05c.397 2.048-.385 3.897-1.979 4.652v.007z"/>
            <path fill="url(#e)" d="M43.317 31.204c-.725-.874-1.705-1.526-2.597-2.311.195-.18.458-.412.713-.656a6.295 6.295 0 0 0-.435-9.673 8.426 8.426 0 0 0-5.234-1.73c-3.939-.046-7.874-.024-11.82-.027h-8.129v2.958l2.99.545h.041v19.953h-.022l-3.05.545v2.962h20.104a16.22 16.22 0 0 0 2.383-.164c2.753-.419 4.956-1.673 6.028-4.38 1.079-2.83 1.048-5.601-.972-8.022zm-17.42 9.028H23.25V20.307h2.646v19.925zm4.883-19.594c1.85.1 3.672.058 5.441.332 1.613.252 2.528 1.69 2.421 3.26-.118 1.746-1.228 3.05-2.882 3.176-1.655.126-3.283.023-4.98.023V20.63v.007zm6.886 18.47a4.106 4.106 0 0 1-1.094.331c-.409.051-.82.07-1.232.057h-4.575v-8.098c1.807 0 3.538-.069 5.262 0a3.786 3.786 0 0 1 3.618 3.05c.396 2.048-.389 3.897-1.983 4.652l.004.007z"/>
        </g>
    </g>
</svg>
